<mxfile host="Electron" agent="Mozilla/5.0 (Windows NT 10.0; Win64; x64) AppleWebKit/537.36 (KHTML, like Gecko) draw.io/26.0.16 Chrome/132.0.6834.196 Electron/34.2.0 Safari/537.36" version="26.0.16">
  <diagram name="System Context: LabEMS" id="0">
    <mxGraphModel dx="1434" dy="836" grid="1" gridSize="10" guides="1" tooltips="1" connect="1" arrows="1" fold="1" page="1" pageScale="1" pageWidth="1100" pageHeight="850" math="0" shadow="0">
      <root>
        <mxCell id="0" />
        <mxCell id="1" parent="0" />
        <mxCell id="sys_boundary" value="LabEMS System" style="shape=swimlane;rounded=1;horizontal=0;startSize=28;swimlaneFillColor=#FAFAFA;strokeColor=#BDBDBD;fontStyle=1;" parent="1" vertex="1">
          <mxGeometry x="360" y="140" width="500" height="420" as="geometry" />
        </mxCell>
        <mxCell id="ui_app" value="Web Application (UI)" style="shape=rectangle;rounded=1;fillColor=#E8F5E9;strokeColor=#2E7D32;fontStyle=1;verticalAlign=middle;" parent="sys_boundary" vertex="1">
          <mxGeometry x="140" y="40" width="220" height="80" as="geometry" />
        </mxCell>
        <mxCell id="svc_core" value="Backend Services" style="shape=rectangle;rounded=1;fillColor=#FFF3E0;strokeColor=#EF6C00;fontStyle=1;verticalAlign=top;" parent="sys_boundary" vertex="1">
          <mxGeometry x="60" y="150" width="390" height="160" as="geometry" />
        </mxCell>
        <mxCell id="svc_auth" value="Authentication" style="shape=rectangle;rounded=1;fillColor=#FFF3E0;strokeColor=#EF6C00;" parent="sys_boundary" vertex="1">
          <mxGeometry x="170" y="240" width="180" height="60" as="geometry" />
        </mxCell>
        <mxCell id="svc_notify" value="Notification Service" style="shape=rectangle;rounded=1;fillColor=#FFF3E0;strokeColor=#EF6C00;" parent="sys_boundary" vertex="1">
          <mxGeometry x="170" y="170" width="180" height="60" as="geometry" />
        </mxCell>
        <mxCell id="db_main" value="Operational DB" style="shape=cylinder;whiteSpace=wrap;html=1;fillColor=#EDE7F6;strokeColor=#5E35B1;fontStyle=1" parent="sys_boundary" vertex="1">
          <mxGeometry x="150" y="340" width="220" height="70" as="geometry" />
        </mxCell>
        <mxCell id="actor_students" value="Students" style="shape=rectangle;rounded=1;fillColor=#E3F2FD;strokeColor=#1565C0;fontStyle=1;" parent="1" vertex="1">
          <mxGeometry x="120" y="110" width="160" height="60" as="geometry" />
        </mxCell>
        <mxCell id="actor_admins" value="Administrators" style="shape=rectangle;rounded=1;fillColor=#E3F2FD;strokeColor=#1565C0;fontStyle=1;" parent="1" vertex="1">
          <mxGeometry x="120" y="290" width="160" height="60" as="geometry" />
        </mxCell>
        <mxCell id="ext_email" value="Email Gateway" style="shape=rectangle;rounded=1;fillColor=#FFEBEE;strokeColor=#C62828;" parent="1" vertex="1">
          <mxGeometry x="920" y="310" width="170" height="60" as="geometry" />
        </mxCell>
        <mxCell id="ext_sso" value="University SSO" style="shape=rectangle;rounded=1;fillColor=#FFEBEE;strokeColor=#C62828;" parent="1" vertex="1">
          <mxGeometry x="920" y="380" width="170" height="60" as="geometry" />
        </mxCell>
        <mxCell id="e1" style="endArrow=block;edgeStyle=none;" parent="1" source="actor_students" target="ui_app" edge="1">
          <mxGeometry relative="1" as="geometry" />
        </mxCell>
        <mxCell id="e3" style="endArrow=block;edgeStyle=none;" parent="1" source="actor_admins" target="ui_app" edge="1">
          <mxGeometry relative="1" as="geometry" />
        </mxCell>
        <mxCell id="e4" style="endArrow=block;edgeStyle=none;" parent="1" source="svc_notify" target="ext_email" edge="1">
          <mxGeometry relative="1" as="geometry" />
        </mxCell>
        <mxCell id="e5" style="endArrow=block;edgeStyle=none;" parent="1" source="svc_auth" target="ext_sso" edge="1">
          <mxGeometry relative="1" as="geometry" />
        </mxCell>
      </root>
    </mxGraphModel>
  </diagram>
</mxfile>
